<mxfile host="app.diagrams.net" modified="2023-07-31T02:53:00.030Z" agent="Mozilla/5.0 (Windows NT 10.0; Win64; x64) AppleWebKit/537.36 (KHTML, like Gecko) Chrome/115.0.0.0 Safari/537.36" etag="q2hLs36XqLW6gwBYZWhF" version="21.6.5" type="device">
  <diagram name="Page-1" id="e56a1550-8fbb-45ad-956c-1786394a9013">
    <mxGraphModel dx="2954" dy="3263" grid="1" gridSize="10" guides="1" tooltips="1" connect="1" arrows="1" fold="1" page="1" pageScale="1" pageWidth="1100" pageHeight="850" background="none" math="0" shadow="0">
      <root>
        <mxCell id="0" />
        <mxCell id="1" parent="0" />
        <mxCell id="6g9lSGSLGqjh2TLEqw__-90" value="" style="swimlane;startSize=0;fillColor=default;fontColor=#333333;strokeColor=#666666;direction=south;gradientColor=none;gradientDirection=east;" vertex="1" parent="1">
          <mxGeometry x="70" y="140" width="470" height="590" as="geometry" />
        </mxCell>
        <mxCell id="2e49270ec7c68f3f-80" value="Employee" style="swimlane;html=1;fontStyle=0;childLayout=stackLayout;horizontal=1;startSize=26;fillColor=#e0e0e0;horizontalStack=0;resizeParent=1;resizeLast=0;collapsible=1;marginBottom=0;swimlaneFillColor=#ffffff;align=center;rounded=0;shadow=0;comic=0;labelBackgroundColor=none;strokeWidth=1;fontFamily=Verdana;fontSize=14" parent="6g9lSGSLGqjh2TLEqw__-90" vertex="1">
          <mxGeometry x="140" y="17" width="160" height="216" as="geometry" />
        </mxCell>
        <mxCell id="2e49270ec7c68f3f-81" value="empNum" style="shape=partialRectangle;top=0;left=0;right=0;bottom=1;html=1;align=left;verticalAlign=middle;fillColor=none;spacingLeft=34;spacingRight=4;whiteSpace=wrap;overflow=hidden;rotatable=0;points=[[0,0.5],[1,0.5]];portConstraint=eastwest;dropTarget=0;fontStyle=5;" parent="2e49270ec7c68f3f-80" vertex="1">
          <mxGeometry y="26" width="160" height="30" as="geometry" />
        </mxCell>
        <mxCell id="2e49270ec7c68f3f-82" value="&lt;b&gt;PK&lt;/b&gt;" style="shape=partialRectangle;top=0;left=0;bottom=0;html=1;fillColor=none;align=left;verticalAlign=middle;spacingLeft=4;spacingRight=4;whiteSpace=wrap;overflow=hidden;rotatable=0;points=[];portConstraint=eastwest;part=1;" parent="2e49270ec7c68f3f-81" vertex="1" connectable="0">
          <mxGeometry width="30" height="30" as="geometry" />
        </mxCell>
        <mxCell id="2e49270ec7c68f3f-83" value="firstName" style="shape=partialRectangle;top=0;left=0;right=0;bottom=0;html=1;align=left;verticalAlign=top;fillColor=none;spacingLeft=34;spacingRight=4;whiteSpace=wrap;overflow=hidden;rotatable=0;points=[[0,0.5],[1,0.5]];portConstraint=eastwest;dropTarget=0;" parent="2e49270ec7c68f3f-80" vertex="1">
          <mxGeometry y="56" width="160" height="26" as="geometry" />
        </mxCell>
        <mxCell id="2e49270ec7c68f3f-84" value="" style="shape=partialRectangle;top=0;left=0;bottom=0;html=1;fillColor=none;align=left;verticalAlign=top;spacingLeft=4;spacingRight=4;whiteSpace=wrap;overflow=hidden;rotatable=0;points=[];portConstraint=eastwest;part=1;" parent="2e49270ec7c68f3f-83" vertex="1" connectable="0">
          <mxGeometry width="30" height="26" as="geometry" />
        </mxCell>
        <mxCell id="2e49270ec7c68f3f-85" value="lastName" style="shape=partialRectangle;top=0;left=0;right=0;bottom=0;html=1;align=left;verticalAlign=top;fillColor=none;spacingLeft=34;spacingRight=4;whiteSpace=wrap;overflow=hidden;rotatable=0;points=[[0,0.5],[1,0.5]];portConstraint=eastwest;dropTarget=0;" parent="2e49270ec7c68f3f-80" vertex="1">
          <mxGeometry y="82" width="160" height="26" as="geometry" />
        </mxCell>
        <mxCell id="2e49270ec7c68f3f-86" value="" style="shape=partialRectangle;top=0;left=0;bottom=0;html=1;fillColor=none;align=left;verticalAlign=top;spacingLeft=4;spacingRight=4;whiteSpace=wrap;overflow=hidden;rotatable=0;points=[];portConstraint=eastwest;part=1;" parent="2e49270ec7c68f3f-85" vertex="1" connectable="0">
          <mxGeometry width="30" height="26" as="geometry" />
        </mxCell>
        <mxCell id="2e49270ec7c68f3f-87" value="Address" style="shape=partialRectangle;top=0;left=0;right=0;bottom=0;html=1;align=left;verticalAlign=top;fillColor=none;spacingLeft=34;spacingRight=4;whiteSpace=wrap;overflow=hidden;rotatable=0;points=[[0,0.5],[1,0.5]];portConstraint=eastwest;dropTarget=0;" parent="2e49270ec7c68f3f-80" vertex="1">
          <mxGeometry y="108" width="160" height="26" as="geometry" />
        </mxCell>
        <mxCell id="2e49270ec7c68f3f-88" value="" style="shape=partialRectangle;top=0;left=0;bottom=0;html=1;fillColor=none;align=left;verticalAlign=top;spacingLeft=4;spacingRight=4;whiteSpace=wrap;overflow=hidden;rotatable=0;points=[];portConstraint=eastwest;part=1;" parent="2e49270ec7c68f3f-87" vertex="1" connectable="0">
          <mxGeometry width="30" height="26" as="geometry" />
        </mxCell>
        <mxCell id="6g9lSGSLGqjh2TLEqw__-1" value="email" style="shape=partialRectangle;top=0;left=0;right=0;bottom=0;html=1;align=left;verticalAlign=top;fillColor=none;spacingLeft=34;spacingRight=4;whiteSpace=wrap;overflow=hidden;rotatable=0;points=[[0,0.5],[1,0.5]];portConstraint=eastwest;dropTarget=0;" vertex="1" parent="2e49270ec7c68f3f-80">
          <mxGeometry y="134" width="160" height="26" as="geometry" />
        </mxCell>
        <mxCell id="6g9lSGSLGqjh2TLEqw__-2" value="" style="shape=partialRectangle;top=0;left=0;bottom=0;html=1;fillColor=none;align=left;verticalAlign=top;spacingLeft=4;spacingRight=4;whiteSpace=wrap;overflow=hidden;rotatable=0;points=[];portConstraint=eastwest;part=1;" vertex="1" connectable="0" parent="6g9lSGSLGqjh2TLEqw__-1">
          <mxGeometry width="30" height="26" as="geometry" />
        </mxCell>
        <mxCell id="6g9lSGSLGqjh2TLEqw__-45" value="Dtype" style="shape=partialRectangle;top=0;left=0;right=0;bottom=0;html=1;align=left;verticalAlign=top;fillColor=none;spacingLeft=34;spacingRight=4;whiteSpace=wrap;overflow=hidden;rotatable=0;points=[[0,0.5],[1,0.5]];portConstraint=eastwest;dropTarget=0;" vertex="1" parent="2e49270ec7c68f3f-80">
          <mxGeometry y="160" width="160" height="26" as="geometry" />
        </mxCell>
        <mxCell id="6g9lSGSLGqjh2TLEqw__-46" value="" style="shape=partialRectangle;top=0;left=0;bottom=0;html=1;fillColor=none;align=left;verticalAlign=top;spacingLeft=4;spacingRight=4;whiteSpace=wrap;overflow=hidden;rotatable=0;points=[];portConstraint=eastwest;part=1;" vertex="1" connectable="0" parent="6g9lSGSLGqjh2TLEqw__-45">
          <mxGeometry width="30" height="26" as="geometry" />
        </mxCell>
        <mxCell id="6g9lSGSLGqjh2TLEqw__-3" value="HourlyEmployee" style="swimlane;html=1;fontStyle=0;childLayout=stackLayout;horizontal=1;startSize=26;fillColor=#e0e0e0;horizontalStack=0;resizeParent=1;resizeLast=0;collapsible=1;marginBottom=0;swimlaneFillColor=#ffffff;align=center;rounded=0;shadow=0;comic=0;labelBackgroundColor=none;strokeWidth=1;fontFamily=Verdana;fontSize=14;swimlaneLine=1;" vertex="1" parent="6g9lSGSLGqjh2TLEqw__-90">
          <mxGeometry x="20" y="401" width="150" height="120" as="geometry" />
        </mxCell>
        <mxCell id="6g9lSGSLGqjh2TLEqw__-4" value="empNum_FK" style="shape=partialRectangle;top=0;left=0;right=0;bottom=1;html=1;align=left;verticalAlign=middle;fillColor=none;spacingLeft=34;spacingRight=4;whiteSpace=wrap;overflow=hidden;rotatable=0;points=[[0,0.5],[1,0.5]];portConstraint=eastwest;dropTarget=0;fontStyle=5;" vertex="1" parent="6g9lSGSLGqjh2TLEqw__-3">
          <mxGeometry y="26" width="150" height="30" as="geometry" />
        </mxCell>
        <mxCell id="6g9lSGSLGqjh2TLEqw__-5" value="PK, FK1" style="shape=partialRectangle;top=0;left=0;bottom=0;html=1;fillColor=none;align=left;verticalAlign=middle;spacingLeft=4;spacingRight=4;whiteSpace=wrap;overflow=hidden;rotatable=0;points=[];portConstraint=eastwest;part=1;" vertex="1" connectable="0" parent="6g9lSGSLGqjh2TLEqw__-4">
          <mxGeometry width="31.578947368421055" height="30" as="geometry" />
        </mxCell>
        <mxCell id="6g9lSGSLGqjh2TLEqw__-6" value="payRates" style="shape=partialRectangle;top=0;left=0;right=0;bottom=0;html=1;align=left;verticalAlign=top;fillColor=none;spacingLeft=34;spacingRight=4;whiteSpace=wrap;overflow=hidden;rotatable=0;points=[[0,0.5],[1,0.5]];portConstraint=eastwest;dropTarget=0;" vertex="1" parent="6g9lSGSLGqjh2TLEqw__-3">
          <mxGeometry y="56" width="150" height="26" as="geometry" />
        </mxCell>
        <mxCell id="6g9lSGSLGqjh2TLEqw__-7" value="" style="shape=partialRectangle;top=0;left=0;bottom=0;html=1;fillColor=none;align=left;verticalAlign=top;spacingLeft=4;spacingRight=4;whiteSpace=wrap;overflow=hidden;rotatable=0;points=[];portConstraint=eastwest;part=1;" vertex="1" connectable="0" parent="6g9lSGSLGqjh2TLEqw__-6">
          <mxGeometry width="30" height="26" as="geometry" />
        </mxCell>
        <mxCell id="6g9lSGSLGqjh2TLEqw__-8" value="hoursWorked" style="shape=partialRectangle;top=0;left=0;right=0;bottom=0;html=1;align=left;verticalAlign=top;fillColor=none;spacingLeft=34;spacingRight=4;whiteSpace=wrap;overflow=hidden;rotatable=0;points=[[0,0.5],[1,0.5]];portConstraint=eastwest;dropTarget=0;" vertex="1" parent="6g9lSGSLGqjh2TLEqw__-3">
          <mxGeometry y="82" width="150" height="26" as="geometry" />
        </mxCell>
        <mxCell id="6g9lSGSLGqjh2TLEqw__-9" value="" style="shape=partialRectangle;top=0;left=0;bottom=0;html=1;fillColor=none;align=left;verticalAlign=top;spacingLeft=4;spacingRight=4;whiteSpace=wrap;overflow=hidden;rotatable=0;points=[];portConstraint=eastwest;part=1;" vertex="1" connectable="0" parent="6g9lSGSLGqjh2TLEqw__-8">
          <mxGeometry width="30" height="26" as="geometry" />
        </mxCell>
        <mxCell id="6g9lSGSLGqjh2TLEqw__-12" value="" style="shape=partialRectangle;top=0;left=0;right=0;bottom=0;html=1;align=left;verticalAlign=top;fillColor=none;spacingLeft=34;spacingRight=4;whiteSpace=wrap;overflow=hidden;rotatable=0;points=[[0,0.5],[1,0.5]];portConstraint=eastwest;dropTarget=0;" vertex="1" parent="6g9lSGSLGqjh2TLEqw__-3">
          <mxGeometry y="108" width="150" height="10" as="geometry" />
        </mxCell>
        <mxCell id="6g9lSGSLGqjh2TLEqw__-13" value="" style="shape=partialRectangle;top=0;left=0;bottom=0;html=1;fillColor=none;align=left;verticalAlign=top;spacingLeft=4;spacingRight=4;whiteSpace=wrap;overflow=hidden;rotatable=0;points=[];portConstraint=eastwest;part=1;" vertex="1" connectable="0" parent="6g9lSGSLGqjh2TLEqw__-12">
          <mxGeometry width="30" height="10" as="geometry" />
        </mxCell>
        <mxCell id="6g9lSGSLGqjh2TLEqw__-16" value="" style="shape=link;html=1;rounded=0;" edge="1" parent="6g9lSGSLGqjh2TLEqw__-90">
          <mxGeometry width="100" relative="1" as="geometry">
            <mxPoint x="170" y="317" as="sourcePoint" />
            <mxPoint x="270" y="317" as="targetPoint" />
          </mxGeometry>
        </mxCell>
        <mxCell id="6g9lSGSLGqjh2TLEqw__-17" value="SalariedEmployee" style="swimlane;html=1;fontStyle=0;childLayout=stackLayout;horizontal=1;startSize=26;fillColor=#e0e0e0;horizontalStack=0;resizeParent=1;resizeLast=0;collapsible=1;marginBottom=0;swimlaneFillColor=#ffffff;align=center;rounded=0;shadow=0;comic=0;labelBackgroundColor=none;strokeWidth=1;fontFamily=Verdana;fontSize=14;swimlaneLine=1;" vertex="1" parent="6g9lSGSLGqjh2TLEqw__-90">
          <mxGeometry x="270" y="401" width="150" height="144" as="geometry" />
        </mxCell>
        <mxCell id="6g9lSGSLGqjh2TLEqw__-18" value="empNum_FK" style="shape=partialRectangle;top=0;left=0;right=0;bottom=1;html=1;align=left;verticalAlign=middle;fillColor=none;spacingLeft=34;spacingRight=4;whiteSpace=wrap;overflow=hidden;rotatable=0;points=[[0,0.5],[1,0.5]];portConstraint=eastwest;dropTarget=0;fontStyle=5;" vertex="1" parent="6g9lSGSLGqjh2TLEqw__-17">
          <mxGeometry y="26" width="150" height="30" as="geometry" />
        </mxCell>
        <mxCell id="6g9lSGSLGqjh2TLEqw__-19" value="PK, FK1" style="shape=partialRectangle;top=0;left=0;bottom=0;html=1;fillColor=none;align=left;verticalAlign=middle;spacingLeft=4;spacingRight=4;whiteSpace=wrap;overflow=hidden;rotatable=0;points=[];portConstraint=eastwest;part=1;" vertex="1" connectable="0" parent="6g9lSGSLGqjh2TLEqw__-18">
          <mxGeometry width="31.578947368421055" height="30" as="geometry" />
        </mxCell>
        <mxCell id="6g9lSGSLGqjh2TLEqw__-20" value="annualSalary" style="shape=partialRectangle;top=0;left=0;right=0;bottom=0;html=1;align=left;verticalAlign=top;fillColor=none;spacingLeft=34;spacingRight=4;whiteSpace=wrap;overflow=hidden;rotatable=0;points=[[0,0.5],[1,0.5]];portConstraint=eastwest;dropTarget=0;" vertex="1" parent="6g9lSGSLGqjh2TLEqw__-17">
          <mxGeometry y="56" width="150" height="26" as="geometry" />
        </mxCell>
        <mxCell id="6g9lSGSLGqjh2TLEqw__-21" value="" style="shape=partialRectangle;top=0;left=0;bottom=0;html=1;fillColor=none;align=left;verticalAlign=top;spacingLeft=4;spacingRight=4;whiteSpace=wrap;overflow=hidden;rotatable=0;points=[];portConstraint=eastwest;part=1;" vertex="1" connectable="0" parent="6g9lSGSLGqjh2TLEqw__-20">
          <mxGeometry width="30" height="26" as="geometry" />
        </mxCell>
        <mxCell id="6g9lSGSLGqjh2TLEqw__-22" value="payFrequency" style="shape=partialRectangle;top=0;left=0;right=0;bottom=0;html=1;align=left;verticalAlign=top;fillColor=none;spacingLeft=34;spacingRight=4;whiteSpace=wrap;overflow=hidden;rotatable=0;points=[[0,0.5],[1,0.5]];portConstraint=eastwest;dropTarget=0;" vertex="1" parent="6g9lSGSLGqjh2TLEqw__-17">
          <mxGeometry y="82" width="150" height="26" as="geometry" />
        </mxCell>
        <mxCell id="6g9lSGSLGqjh2TLEqw__-23" value="" style="shape=partialRectangle;top=0;left=0;bottom=0;html=1;fillColor=none;align=left;verticalAlign=top;spacingLeft=4;spacingRight=4;whiteSpace=wrap;overflow=hidden;rotatable=0;points=[];portConstraint=eastwest;part=1;" vertex="1" connectable="0" parent="6g9lSGSLGqjh2TLEqw__-22">
          <mxGeometry width="30" height="26" as="geometry" />
        </mxCell>
        <mxCell id="6g9lSGSLGqjh2TLEqw__-24" value="salary" style="shape=partialRectangle;top=0;left=0;right=0;bottom=0;html=1;align=left;verticalAlign=top;fillColor=none;spacingLeft=34;spacingRight=4;whiteSpace=wrap;overflow=hidden;rotatable=0;points=[[0,0.5],[1,0.5]];portConstraint=eastwest;dropTarget=0;" vertex="1" parent="6g9lSGSLGqjh2TLEqw__-17">
          <mxGeometry y="108" width="150" height="26" as="geometry" />
        </mxCell>
        <mxCell id="6g9lSGSLGqjh2TLEqw__-25" value="" style="shape=partialRectangle;top=0;left=0;bottom=0;html=1;fillColor=none;align=left;verticalAlign=top;spacingLeft=4;spacingRight=4;whiteSpace=wrap;overflow=hidden;rotatable=0;points=[];portConstraint=eastwest;part=1;" vertex="1" connectable="0" parent="6g9lSGSLGqjh2TLEqw__-24">
          <mxGeometry width="30" height="26" as="geometry" />
        </mxCell>
        <mxCell id="6g9lSGSLGqjh2TLEqw__-26" value="" style="shape=partialRectangle;top=0;left=0;right=0;bottom=0;html=1;align=left;verticalAlign=top;fillColor=none;spacingLeft=34;spacingRight=4;whiteSpace=wrap;overflow=hidden;rotatable=0;points=[[0,0.5],[1,0.5]];portConstraint=eastwest;dropTarget=0;" vertex="1" parent="6g9lSGSLGqjh2TLEqw__-17">
          <mxGeometry y="134" width="150" height="10" as="geometry" />
        </mxCell>
        <mxCell id="6g9lSGSLGqjh2TLEqw__-27" value="" style="shape=partialRectangle;top=0;left=0;bottom=0;html=1;fillColor=none;align=left;verticalAlign=top;spacingLeft=4;spacingRight=4;whiteSpace=wrap;overflow=hidden;rotatable=0;points=[];portConstraint=eastwest;part=1;" vertex="1" connectable="0" parent="6g9lSGSLGqjh2TLEqw__-26">
          <mxGeometry width="30" height="10" as="geometry" />
        </mxCell>
        <mxCell id="6g9lSGSLGqjh2TLEqw__-28" value="D" style="ellipse;whiteSpace=wrap;html=1;aspect=fixed;" vertex="1" parent="6g9lSGSLGqjh2TLEqw__-90">
          <mxGeometry x="200" y="269" width="40" height="40" as="geometry" />
        </mxCell>
        <mxCell id="6g9lSGSLGqjh2TLEqw__-29" value="" style="endArrow=none;html=1;rounded=0;exitX=0.5;exitY=0;exitDx=0;exitDy=0;entryX=0.5;entryY=1;entryDx=0;entryDy=0;" edge="1" parent="6g9lSGSLGqjh2TLEqw__-90" source="6g9lSGSLGqjh2TLEqw__-28" target="2e49270ec7c68f3f-80">
          <mxGeometry width="50" height="50" relative="1" as="geometry">
            <mxPoint x="180" y="367" as="sourcePoint" />
            <mxPoint x="230" y="317" as="targetPoint" />
          </mxGeometry>
        </mxCell>
        <mxCell id="6g9lSGSLGqjh2TLEqw__-30" value="" style="endArrow=none;html=1;rounded=0;exitX=0.5;exitY=0;exitDx=0;exitDy=0;" edge="1" parent="6g9lSGSLGqjh2TLEqw__-90" source="6g9lSGSLGqjh2TLEqw__-3">
          <mxGeometry width="50" height="50" relative="1" as="geometry">
            <mxPoint x="180" y="367" as="sourcePoint" />
            <mxPoint x="220" y="317" as="targetPoint" />
            <Array as="points">
              <mxPoint x="100" y="357" />
              <mxPoint x="220" y="357" />
            </Array>
          </mxGeometry>
        </mxCell>
        <mxCell id="6g9lSGSLGqjh2TLEqw__-31" value="" style="endArrow=none;html=1;rounded=0;exitX=0.5;exitY=0;exitDx=0;exitDy=0;" edge="1" parent="6g9lSGSLGqjh2TLEqw__-90" source="6g9lSGSLGqjh2TLEqw__-17">
          <mxGeometry width="50" height="50" relative="1" as="geometry">
            <mxPoint x="105" y="411" as="sourcePoint" />
            <mxPoint x="220" y="317" as="targetPoint" />
            <Array as="points">
              <mxPoint x="340" y="357" />
              <mxPoint x="220" y="357" />
            </Array>
          </mxGeometry>
        </mxCell>
        <mxCell id="6g9lSGSLGqjh2TLEqw__-32" value="&quot;H&quot;" style="text;html=1;align=center;verticalAlign=middle;resizable=0;points=[];autosize=1;strokeColor=none;fillColor=none;" vertex="1" parent="6g9lSGSLGqjh2TLEqw__-90">
          <mxGeometry x="100" y="362" width="40" height="30" as="geometry" />
        </mxCell>
        <mxCell id="6g9lSGSLGqjh2TLEqw__-33" value="&quot;D&quot;" style="text;html=1;align=center;verticalAlign=middle;resizable=0;points=[];autosize=1;strokeColor=none;fillColor=none;" vertex="1" parent="6g9lSGSLGqjh2TLEqw__-90">
          <mxGeometry x="340" y="362" width="40" height="30" as="geometry" />
        </mxCell>
        <mxCell id="6g9lSGSLGqjh2TLEqw__-119" value="Current&amp;nbsp; Data" style="text;html=1;align=center;verticalAlign=middle;resizable=0;points=[];autosize=1;strokeColor=none;fillColor=none;fontStyle=1;fontSize=18;" vertex="1" parent="6g9lSGSLGqjh2TLEqw__-90">
          <mxGeometry x="320" y="17" width="140" height="40" as="geometry" />
        </mxCell>
        <mxCell id="6g9lSGSLGqjh2TLEqw__-94" value="" style="swimlane;startSize=0;" vertex="1" parent="1">
          <mxGeometry x="610" y="145" width="200" height="580" as="geometry" />
        </mxCell>
        <mxCell id="6g9lSGSLGqjh2TLEqw__-95" value="SalaryChange" style="swimlane;html=1;fontStyle=0;childLayout=stackLayout;horizontal=1;startSize=26;fillColor=#e0e0e0;horizontalStack=0;resizeParent=1;resizeLast=0;collapsible=1;marginBottom=0;swimlaneFillColor=#ffffff;align=center;rounded=0;shadow=0;comic=0;labelBackgroundColor=none;strokeWidth=1;fontFamily=Verdana;fontSize=14;swimlaneLine=1;" vertex="1" parent="6g9lSGSLGqjh2TLEqw__-94">
          <mxGeometry x="25" y="395" width="150" height="170" as="geometry" />
        </mxCell>
        <mxCell id="6g9lSGSLGqjh2TLEqw__-96" value="empNum_FK" style="shape=partialRectangle;top=0;left=0;right=0;bottom=1;html=1;align=left;verticalAlign=middle;fillColor=none;spacingLeft=34;spacingRight=4;whiteSpace=wrap;overflow=hidden;rotatable=0;points=[[0,0.5],[1,0.5]];portConstraint=eastwest;dropTarget=0;fontStyle=5;" vertex="1" parent="6g9lSGSLGqjh2TLEqw__-95">
          <mxGeometry y="26" width="150" height="30" as="geometry" />
        </mxCell>
        <mxCell id="6g9lSGSLGqjh2TLEqw__-97" value="PK, FK1" style="shape=partialRectangle;top=0;left=0;bottom=0;html=1;fillColor=none;align=left;verticalAlign=middle;spacingLeft=4;spacingRight=4;whiteSpace=wrap;overflow=hidden;rotatable=0;points=[];portConstraint=eastwest;part=1;" vertex="1" connectable="0" parent="6g9lSGSLGqjh2TLEqw__-96">
          <mxGeometry width="31.578947368421055" height="30" as="geometry" />
        </mxCell>
        <mxCell id="6g9lSGSLGqjh2TLEqw__-100" value="previousSalaries" style="shape=partialRectangle;top=0;left=0;right=0;bottom=0;html=1;align=left;verticalAlign=top;fillColor=none;spacingLeft=34;spacingRight=4;whiteSpace=wrap;overflow=hidden;rotatable=0;points=[[0,0.5],[1,0.5]];portConstraint=eastwest;dropTarget=0;" vertex="1" parent="6g9lSGSLGqjh2TLEqw__-95">
          <mxGeometry y="56" width="150" height="26" as="geometry" />
        </mxCell>
        <mxCell id="6g9lSGSLGqjh2TLEqw__-101" value="" style="shape=partialRectangle;top=0;left=0;bottom=0;html=1;fillColor=none;align=left;verticalAlign=top;spacingLeft=4;spacingRight=4;whiteSpace=wrap;overflow=hidden;rotatable=0;points=[];portConstraint=eastwest;part=1;" vertex="1" connectable="0" parent="6g9lSGSLGqjh2TLEqw__-100">
          <mxGeometry width="30" height="26" as="geometry" />
        </mxCell>
        <mxCell id="6g9lSGSLGqjh2TLEqw__-122" value="new Salary" style="shape=partialRectangle;top=0;left=0;right=0;bottom=0;html=1;align=left;verticalAlign=top;fillColor=none;spacingLeft=34;spacingRight=4;whiteSpace=wrap;overflow=hidden;rotatable=0;points=[[0,0.5],[1,0.5]];portConstraint=eastwest;dropTarget=0;" vertex="1" parent="6g9lSGSLGqjh2TLEqw__-95">
          <mxGeometry y="82" width="150" height="26" as="geometry" />
        </mxCell>
        <mxCell id="6g9lSGSLGqjh2TLEqw__-123" value="" style="shape=partialRectangle;top=0;left=0;bottom=0;html=1;fillColor=none;align=left;verticalAlign=top;spacingLeft=4;spacingRight=4;whiteSpace=wrap;overflow=hidden;rotatable=0;points=[];portConstraint=eastwest;part=1;" vertex="1" connectable="0" parent="6g9lSGSLGqjh2TLEqw__-122">
          <mxGeometry width="30" height="26" as="geometry" />
        </mxCell>
        <mxCell id="6g9lSGSLGqjh2TLEqw__-124" value="dateOfChange" style="shape=partialRectangle;top=0;left=0;right=0;bottom=0;html=1;align=left;verticalAlign=top;fillColor=none;spacingLeft=34;spacingRight=4;whiteSpace=wrap;overflow=hidden;rotatable=0;points=[[0,0.5],[1,0.5]];portConstraint=eastwest;dropTarget=0;" vertex="1" parent="6g9lSGSLGqjh2TLEqw__-95">
          <mxGeometry y="108" width="150" height="26" as="geometry" />
        </mxCell>
        <mxCell id="6g9lSGSLGqjh2TLEqw__-125" value="" style="shape=partialRectangle;top=0;left=0;bottom=0;html=1;fillColor=none;align=left;verticalAlign=top;spacingLeft=4;spacingRight=4;whiteSpace=wrap;overflow=hidden;rotatable=0;points=[];portConstraint=eastwest;part=1;" vertex="1" connectable="0" parent="6g9lSGSLGqjh2TLEqw__-124">
          <mxGeometry width="30" height="26" as="geometry" />
        </mxCell>
        <mxCell id="6g9lSGSLGqjh2TLEqw__-104" value="" style="shape=partialRectangle;top=0;left=0;right=0;bottom=0;html=1;align=left;verticalAlign=top;fillColor=none;spacingLeft=34;spacingRight=4;whiteSpace=wrap;overflow=hidden;rotatable=0;points=[[0,0.5],[1,0.5]];portConstraint=eastwest;dropTarget=0;" vertex="1" parent="6g9lSGSLGqjh2TLEqw__-95">
          <mxGeometry y="134" width="150" height="10" as="geometry" />
        </mxCell>
        <mxCell id="6g9lSGSLGqjh2TLEqw__-105" value="" style="shape=partialRectangle;top=0;left=0;bottom=0;html=1;fillColor=none;align=left;verticalAlign=top;spacingLeft=4;spacingRight=4;whiteSpace=wrap;overflow=hidden;rotatable=0;points=[];portConstraint=eastwest;part=1;" vertex="1" connectable="0" parent="6g9lSGSLGqjh2TLEqw__-104">
          <mxGeometry width="30" height="10" as="geometry" />
        </mxCell>
        <mxCell id="6g9lSGSLGqjh2TLEqw__-108" value="AddressChange" style="swimlane;html=1;fontStyle=0;childLayout=stackLayout;horizontal=1;startSize=26;fillColor=#e0e0e0;horizontalStack=0;resizeParent=1;resizeLast=0;collapsible=1;marginBottom=0;swimlaneFillColor=#ffffff;align=center;rounded=0;shadow=0;comic=0;labelBackgroundColor=none;strokeWidth=1;fontFamily=Verdana;fontSize=14;swimlaneLine=1;" vertex="1" parent="6g9lSGSLGqjh2TLEqw__-94">
          <mxGeometry x="25" y="55" width="150" height="144" as="geometry" />
        </mxCell>
        <mxCell id="6g9lSGSLGqjh2TLEqw__-109" value="empNum_FK" style="shape=partialRectangle;top=0;left=0;right=0;bottom=1;html=1;align=left;verticalAlign=middle;fillColor=none;spacingLeft=34;spacingRight=4;whiteSpace=wrap;overflow=hidden;rotatable=0;points=[[0,0.5],[1,0.5]];portConstraint=eastwest;dropTarget=0;fontStyle=5;" vertex="1" parent="6g9lSGSLGqjh2TLEqw__-108">
          <mxGeometry y="26" width="150" height="30" as="geometry" />
        </mxCell>
        <mxCell id="6g9lSGSLGqjh2TLEqw__-110" value="PK, FK1" style="shape=partialRectangle;top=0;left=0;bottom=0;html=1;fillColor=none;align=left;verticalAlign=middle;spacingLeft=4;spacingRight=4;whiteSpace=wrap;overflow=hidden;rotatable=0;points=[];portConstraint=eastwest;part=1;" vertex="1" connectable="0" parent="6g9lSGSLGqjh2TLEqw__-109">
          <mxGeometry width="31.578947368421055" height="30" as="geometry" />
        </mxCell>
        <mxCell id="6g9lSGSLGqjh2TLEqw__-111" value="previousAddress" style="shape=partialRectangle;top=0;left=0;right=0;bottom=0;html=1;align=left;verticalAlign=top;fillColor=none;spacingLeft=34;spacingRight=4;whiteSpace=wrap;overflow=hidden;rotatable=0;points=[[0,0.5],[1,0.5]];portConstraint=eastwest;dropTarget=0;" vertex="1" parent="6g9lSGSLGqjh2TLEqw__-108">
          <mxGeometry y="56" width="150" height="26" as="geometry" />
        </mxCell>
        <mxCell id="6g9lSGSLGqjh2TLEqw__-112" value="" style="shape=partialRectangle;top=0;left=0;bottom=0;html=1;fillColor=none;align=left;verticalAlign=top;spacingLeft=4;spacingRight=4;whiteSpace=wrap;overflow=hidden;rotatable=0;points=[];portConstraint=eastwest;part=1;" vertex="1" connectable="0" parent="6g9lSGSLGqjh2TLEqw__-111">
          <mxGeometry width="30" height="26" as="geometry" />
        </mxCell>
        <mxCell id="6g9lSGSLGqjh2TLEqw__-113" value="newAddress" style="shape=partialRectangle;top=0;left=0;right=0;bottom=0;html=1;align=left;verticalAlign=top;fillColor=none;spacingLeft=34;spacingRight=4;whiteSpace=wrap;overflow=hidden;rotatable=0;points=[[0,0.5],[1,0.5]];portConstraint=eastwest;dropTarget=0;" vertex="1" parent="6g9lSGSLGqjh2TLEqw__-108">
          <mxGeometry y="82" width="150" height="26" as="geometry" />
        </mxCell>
        <mxCell id="6g9lSGSLGqjh2TLEqw__-114" value="" style="shape=partialRectangle;top=0;left=0;bottom=0;html=1;fillColor=none;align=left;verticalAlign=top;spacingLeft=4;spacingRight=4;whiteSpace=wrap;overflow=hidden;rotatable=0;points=[];portConstraint=eastwest;part=1;" vertex="1" connectable="0" parent="6g9lSGSLGqjh2TLEqw__-113">
          <mxGeometry width="30" height="26" as="geometry" />
        </mxCell>
        <mxCell id="6g9lSGSLGqjh2TLEqw__-115" value="dateOfChange" style="shape=partialRectangle;top=0;left=0;right=0;bottom=0;html=1;align=left;verticalAlign=top;fillColor=none;spacingLeft=34;spacingRight=4;whiteSpace=wrap;overflow=hidden;rotatable=0;points=[[0,0.5],[1,0.5]];portConstraint=eastwest;dropTarget=0;" vertex="1" parent="6g9lSGSLGqjh2TLEqw__-108">
          <mxGeometry y="108" width="150" height="26" as="geometry" />
        </mxCell>
        <mxCell id="6g9lSGSLGqjh2TLEqw__-116" value="" style="shape=partialRectangle;top=0;left=0;bottom=0;html=1;fillColor=none;align=left;verticalAlign=top;spacingLeft=4;spacingRight=4;whiteSpace=wrap;overflow=hidden;rotatable=0;points=[];portConstraint=eastwest;part=1;" vertex="1" connectable="0" parent="6g9lSGSLGqjh2TLEqw__-115">
          <mxGeometry width="30" height="26" as="geometry" />
        </mxCell>
        <mxCell id="6g9lSGSLGqjh2TLEqw__-117" value="" style="shape=partialRectangle;top=0;left=0;right=0;bottom=0;html=1;align=left;verticalAlign=top;fillColor=none;spacingLeft=34;spacingRight=4;whiteSpace=wrap;overflow=hidden;rotatable=0;points=[[0,0.5],[1,0.5]];portConstraint=eastwest;dropTarget=0;" vertex="1" parent="6g9lSGSLGqjh2TLEqw__-108">
          <mxGeometry y="134" width="150" height="10" as="geometry" />
        </mxCell>
        <mxCell id="6g9lSGSLGqjh2TLEqw__-118" value="" style="shape=partialRectangle;top=0;left=0;bottom=0;html=1;fillColor=none;align=left;verticalAlign=top;spacingLeft=4;spacingRight=4;whiteSpace=wrap;overflow=hidden;rotatable=0;points=[];portConstraint=eastwest;part=1;" vertex="1" connectable="0" parent="6g9lSGSLGqjh2TLEqw__-117">
          <mxGeometry width="30" height="10" as="geometry" />
        </mxCell>
        <mxCell id="6g9lSGSLGqjh2TLEqw__-120" value="Historic Data" style="text;html=1;align=center;verticalAlign=middle;resizable=0;points=[];autosize=1;strokeColor=none;fillColor=none;fontStyle=1;fontSize=18;" vertex="1" parent="6g9lSGSLGqjh2TLEqw__-94">
          <mxGeometry x="60" y="5" width="130" height="40" as="geometry" />
        </mxCell>
        <mxCell id="6g9lSGSLGqjh2TLEqw__-126" value="EmailHistory" style="swimlane;html=1;fontStyle=0;childLayout=stackLayout;horizontal=1;startSize=26;fillColor=#e0e0e0;horizontalStack=0;resizeParent=1;resizeLast=0;collapsible=1;marginBottom=0;swimlaneFillColor=#ffffff;align=center;rounded=0;shadow=0;comic=0;labelBackgroundColor=none;strokeWidth=1;fontFamily=Verdana;fontSize=14;swimlaneLine=1;" vertex="1" parent="6g9lSGSLGqjh2TLEqw__-94">
          <mxGeometry x="25" y="218" width="150" height="144" as="geometry" />
        </mxCell>
        <mxCell id="6g9lSGSLGqjh2TLEqw__-127" value="empNum_FK" style="shape=partialRectangle;top=0;left=0;right=0;bottom=1;html=1;align=left;verticalAlign=middle;fillColor=none;spacingLeft=34;spacingRight=4;whiteSpace=wrap;overflow=hidden;rotatable=0;points=[[0,0.5],[1,0.5]];portConstraint=eastwest;dropTarget=0;fontStyle=5;" vertex="1" parent="6g9lSGSLGqjh2TLEqw__-126">
          <mxGeometry y="26" width="150" height="30" as="geometry" />
        </mxCell>
        <mxCell id="6g9lSGSLGqjh2TLEqw__-128" value="PK, FK1" style="shape=partialRectangle;top=0;left=0;bottom=0;html=1;fillColor=none;align=left;verticalAlign=middle;spacingLeft=4;spacingRight=4;whiteSpace=wrap;overflow=hidden;rotatable=0;points=[];portConstraint=eastwest;part=1;" vertex="1" connectable="0" parent="6g9lSGSLGqjh2TLEqw__-127">
          <mxGeometry width="31.578947368421055" height="30" as="geometry" />
        </mxCell>
        <mxCell id="6g9lSGSLGqjh2TLEqw__-129" value="previousEmail" style="shape=partialRectangle;top=0;left=0;right=0;bottom=0;html=1;align=left;verticalAlign=top;fillColor=none;spacingLeft=34;spacingRight=4;whiteSpace=wrap;overflow=hidden;rotatable=0;points=[[0,0.5],[1,0.5]];portConstraint=eastwest;dropTarget=0;" vertex="1" parent="6g9lSGSLGqjh2TLEqw__-126">
          <mxGeometry y="56" width="150" height="26" as="geometry" />
        </mxCell>
        <mxCell id="6g9lSGSLGqjh2TLEqw__-130" value="" style="shape=partialRectangle;top=0;left=0;bottom=0;html=1;fillColor=none;align=left;verticalAlign=top;spacingLeft=4;spacingRight=4;whiteSpace=wrap;overflow=hidden;rotatable=0;points=[];portConstraint=eastwest;part=1;" vertex="1" connectable="0" parent="6g9lSGSLGqjh2TLEqw__-129">
          <mxGeometry width="30" height="26" as="geometry" />
        </mxCell>
        <mxCell id="6g9lSGSLGqjh2TLEqw__-131" value="newEmail" style="shape=partialRectangle;top=0;left=0;right=0;bottom=0;html=1;align=left;verticalAlign=top;fillColor=none;spacingLeft=34;spacingRight=4;whiteSpace=wrap;overflow=hidden;rotatable=0;points=[[0,0.5],[1,0.5]];portConstraint=eastwest;dropTarget=0;" vertex="1" parent="6g9lSGSLGqjh2TLEqw__-126">
          <mxGeometry y="82" width="150" height="26" as="geometry" />
        </mxCell>
        <mxCell id="6g9lSGSLGqjh2TLEqw__-132" value="" style="shape=partialRectangle;top=0;left=0;bottom=0;html=1;fillColor=none;align=left;verticalAlign=top;spacingLeft=4;spacingRight=4;whiteSpace=wrap;overflow=hidden;rotatable=0;points=[];portConstraint=eastwest;part=1;" vertex="1" connectable="0" parent="6g9lSGSLGqjh2TLEqw__-131">
          <mxGeometry width="30" height="26" as="geometry" />
        </mxCell>
        <mxCell id="6g9lSGSLGqjh2TLEqw__-133" value="dateOfChange" style="shape=partialRectangle;top=0;left=0;right=0;bottom=0;html=1;align=left;verticalAlign=top;fillColor=none;spacingLeft=34;spacingRight=4;whiteSpace=wrap;overflow=hidden;rotatable=0;points=[[0,0.5],[1,0.5]];portConstraint=eastwest;dropTarget=0;" vertex="1" parent="6g9lSGSLGqjh2TLEqw__-126">
          <mxGeometry y="108" width="150" height="26" as="geometry" />
        </mxCell>
        <mxCell id="6g9lSGSLGqjh2TLEqw__-134" value="" style="shape=partialRectangle;top=0;left=0;bottom=0;html=1;fillColor=none;align=left;verticalAlign=top;spacingLeft=4;spacingRight=4;whiteSpace=wrap;overflow=hidden;rotatable=0;points=[];portConstraint=eastwest;part=1;" vertex="1" connectable="0" parent="6g9lSGSLGqjh2TLEqw__-133">
          <mxGeometry width="30" height="26" as="geometry" />
        </mxCell>
        <mxCell id="6g9lSGSLGqjh2TLEqw__-135" value="" style="shape=partialRectangle;top=0;left=0;right=0;bottom=0;html=1;align=left;verticalAlign=top;fillColor=none;spacingLeft=34;spacingRight=4;whiteSpace=wrap;overflow=hidden;rotatable=0;points=[[0,0.5],[1,0.5]];portConstraint=eastwest;dropTarget=0;" vertex="1" parent="6g9lSGSLGqjh2TLEqw__-126">
          <mxGeometry y="134" width="150" height="10" as="geometry" />
        </mxCell>
        <mxCell id="6g9lSGSLGqjh2TLEqw__-136" value="" style="shape=partialRectangle;top=0;left=0;bottom=0;html=1;fillColor=none;align=left;verticalAlign=top;spacingLeft=4;spacingRight=4;whiteSpace=wrap;overflow=hidden;rotatable=0;points=[];portConstraint=eastwest;part=1;" vertex="1" connectable="0" parent="6g9lSGSLGqjh2TLEqw__-135">
          <mxGeometry width="30" height="10" as="geometry" />
        </mxCell>
        <mxCell id="6g9lSGSLGqjh2TLEqw__-107" value="" style="edgeStyle=entityRelationEdgeStyle;fontSize=12;html=1;endArrow=ERzeroToMany;startArrow=ERmandOne;rounded=0;exitX=1;exitY=0.5;exitDx=0;exitDy=0;entryX=0;entryY=0.5;entryDx=0;entryDy=0;" edge="1" parent="1" source="6g9lSGSLGqjh2TLEqw__-24" target="6g9lSGSLGqjh2TLEqw__-100">
          <mxGeometry width="100" height="100" relative="1" as="geometry">
            <mxPoint x="420" y="560" as="sourcePoint" />
            <mxPoint x="520" y="460" as="targetPoint" />
            <Array as="points">
              <mxPoint x="550" y="490" />
            </Array>
          </mxGeometry>
        </mxCell>
        <mxCell id="6g9lSGSLGqjh2TLEqw__-141" value="salary" style="edgeLabel;html=1;align=center;verticalAlign=middle;resizable=0;points=[];" vertex="1" connectable="0" parent="6g9lSGSLGqjh2TLEqw__-107">
          <mxGeometry x="-0.0423" y="3" relative="1" as="geometry">
            <mxPoint as="offset" />
          </mxGeometry>
        </mxCell>
        <mxCell id="6g9lSGSLGqjh2TLEqw__-121" value="" style="edgeStyle=entityRelationEdgeStyle;fontSize=12;html=1;endArrow=ERzeroToMany;startArrow=ERmandOne;rounded=0;exitX=1;exitY=0.5;exitDx=0;exitDy=0;entryX=0;entryY=0.5;entryDx=0;entryDy=0;" edge="1" parent="1" source="2e49270ec7c68f3f-87" target="6g9lSGSLGqjh2TLEqw__-109">
          <mxGeometry width="100" height="100" relative="1" as="geometry">
            <mxPoint x="500" y="646" as="sourcePoint" />
            <mxPoint x="635" y="648" as="targetPoint" />
            <Array as="points">
              <mxPoint x="560" y="500" />
            </Array>
          </mxGeometry>
        </mxCell>
        <mxCell id="6g9lSGSLGqjh2TLEqw__-140" value="Address" style="edgeLabel;html=1;align=center;verticalAlign=middle;resizable=0;points=[];" vertex="1" connectable="0" parent="6g9lSGSLGqjh2TLEqw__-121">
          <mxGeometry x="-0.1223" relative="1" as="geometry">
            <mxPoint as="offset" />
          </mxGeometry>
        </mxCell>
        <mxCell id="6g9lSGSLGqjh2TLEqw__-137" value="" style="edgeStyle=entityRelationEdgeStyle;fontSize=12;html=1;endArrow=ERzeroToMany;startArrow=ERmandOne;rounded=0;exitX=1;exitY=0.5;exitDx=0;exitDy=0;entryX=0;entryY=0.5;entryDx=0;entryDy=0;" edge="1" parent="1" source="6g9lSGSLGqjh2TLEqw__-1" target="6g9lSGSLGqjh2TLEqw__-127">
          <mxGeometry width="100" height="100" relative="1" as="geometry">
            <mxPoint x="384" y="225" as="sourcePoint" />
            <mxPoint x="645" y="251" as="targetPoint" />
            <Array as="points">
              <mxPoint x="570" y="510" />
            </Array>
          </mxGeometry>
        </mxCell>
        <mxCell id="6g9lSGSLGqjh2TLEqw__-138" value="email" style="edgeLabel;html=1;align=center;verticalAlign=middle;resizable=0;points=[];" vertex="1" connectable="0" parent="6g9lSGSLGqjh2TLEqw__-137">
          <mxGeometry x="-0.005" y="-2" relative="1" as="geometry">
            <mxPoint as="offset" />
          </mxGeometry>
        </mxCell>
        <mxCell id="6g9lSGSLGqjh2TLEqw__-142" value="" style="swimlane;startSize=0;fillColor=default;fontColor=#333333;strokeColor=#666666;direction=south;gradientColor=none;gradientDirection=east;" vertex="1" parent="1">
          <mxGeometry x="1140" y="120" width="470" height="590" as="geometry" />
        </mxCell>
        <mxCell id="6g9lSGSLGqjh2TLEqw__-143" value="Employee" style="swimlane;html=1;fontStyle=0;childLayout=stackLayout;horizontal=1;startSize=26;fillColor=#e0e0e0;horizontalStack=0;resizeParent=1;resizeLast=0;collapsible=1;marginBottom=0;swimlaneFillColor=#ffffff;align=center;rounded=0;shadow=0;comic=0;labelBackgroundColor=none;strokeWidth=1;fontFamily=Verdana;fontSize=14" vertex="1" parent="6g9lSGSLGqjh2TLEqw__-142">
          <mxGeometry x="140" y="17" width="160" height="216" as="geometry" />
        </mxCell>
        <mxCell id="6g9lSGSLGqjh2TLEqw__-144" value="empNum" style="shape=partialRectangle;top=0;left=0;right=0;bottom=1;html=1;align=left;verticalAlign=middle;fillColor=none;spacingLeft=34;spacingRight=4;whiteSpace=wrap;overflow=hidden;rotatable=0;points=[[0,0.5],[1,0.5]];portConstraint=eastwest;dropTarget=0;fontStyle=5;" vertex="1" parent="6g9lSGSLGqjh2TLEqw__-143">
          <mxGeometry y="26" width="160" height="30" as="geometry" />
        </mxCell>
        <mxCell id="6g9lSGSLGqjh2TLEqw__-145" value="&lt;b&gt;PK&lt;/b&gt;" style="shape=partialRectangle;top=0;left=0;bottom=0;html=1;fillColor=none;align=left;verticalAlign=middle;spacingLeft=4;spacingRight=4;whiteSpace=wrap;overflow=hidden;rotatable=0;points=[];portConstraint=eastwest;part=1;" vertex="1" connectable="0" parent="6g9lSGSLGqjh2TLEqw__-144">
          <mxGeometry width="30" height="30" as="geometry" />
        </mxCell>
        <mxCell id="6g9lSGSLGqjh2TLEqw__-146" value="firstName" style="shape=partialRectangle;top=0;left=0;right=0;bottom=0;html=1;align=left;verticalAlign=top;fillColor=none;spacingLeft=34;spacingRight=4;whiteSpace=wrap;overflow=hidden;rotatable=0;points=[[0,0.5],[1,0.5]];portConstraint=eastwest;dropTarget=0;" vertex="1" parent="6g9lSGSLGqjh2TLEqw__-143">
          <mxGeometry y="56" width="160" height="26" as="geometry" />
        </mxCell>
        <mxCell id="6g9lSGSLGqjh2TLEqw__-147" value="" style="shape=partialRectangle;top=0;left=0;bottom=0;html=1;fillColor=none;align=left;verticalAlign=top;spacingLeft=4;spacingRight=4;whiteSpace=wrap;overflow=hidden;rotatable=0;points=[];portConstraint=eastwest;part=1;" vertex="1" connectable="0" parent="6g9lSGSLGqjh2TLEqw__-146">
          <mxGeometry width="30" height="26" as="geometry" />
        </mxCell>
        <mxCell id="6g9lSGSLGqjh2TLEqw__-148" value="lastName" style="shape=partialRectangle;top=0;left=0;right=0;bottom=0;html=1;align=left;verticalAlign=top;fillColor=none;spacingLeft=34;spacingRight=4;whiteSpace=wrap;overflow=hidden;rotatable=0;points=[[0,0.5],[1,0.5]];portConstraint=eastwest;dropTarget=0;" vertex="1" parent="6g9lSGSLGqjh2TLEqw__-143">
          <mxGeometry y="82" width="160" height="26" as="geometry" />
        </mxCell>
        <mxCell id="6g9lSGSLGqjh2TLEqw__-149" value="" style="shape=partialRectangle;top=0;left=0;bottom=0;html=1;fillColor=none;align=left;verticalAlign=top;spacingLeft=4;spacingRight=4;whiteSpace=wrap;overflow=hidden;rotatable=0;points=[];portConstraint=eastwest;part=1;" vertex="1" connectable="0" parent="6g9lSGSLGqjh2TLEqw__-148">
          <mxGeometry width="30" height="26" as="geometry" />
        </mxCell>
        <mxCell id="6g9lSGSLGqjh2TLEqw__-150" value="Address" style="shape=partialRectangle;top=0;left=0;right=0;bottom=0;html=1;align=left;verticalAlign=top;fillColor=none;spacingLeft=34;spacingRight=4;whiteSpace=wrap;overflow=hidden;rotatable=0;points=[[0,0.5],[1,0.5]];portConstraint=eastwest;dropTarget=0;" vertex="1" parent="6g9lSGSLGqjh2TLEqw__-143">
          <mxGeometry y="108" width="160" height="26" as="geometry" />
        </mxCell>
        <mxCell id="6g9lSGSLGqjh2TLEqw__-151" value="" style="shape=partialRectangle;top=0;left=0;bottom=0;html=1;fillColor=none;align=left;verticalAlign=top;spacingLeft=4;spacingRight=4;whiteSpace=wrap;overflow=hidden;rotatable=0;points=[];portConstraint=eastwest;part=1;" vertex="1" connectable="0" parent="6g9lSGSLGqjh2TLEqw__-150">
          <mxGeometry width="30" height="26" as="geometry" />
        </mxCell>
        <mxCell id="6g9lSGSLGqjh2TLEqw__-152" value="email" style="shape=partialRectangle;top=0;left=0;right=0;bottom=0;html=1;align=left;verticalAlign=top;fillColor=none;spacingLeft=34;spacingRight=4;whiteSpace=wrap;overflow=hidden;rotatable=0;points=[[0,0.5],[1,0.5]];portConstraint=eastwest;dropTarget=0;" vertex="1" parent="6g9lSGSLGqjh2TLEqw__-143">
          <mxGeometry y="134" width="160" height="26" as="geometry" />
        </mxCell>
        <mxCell id="6g9lSGSLGqjh2TLEqw__-153" value="" style="shape=partialRectangle;top=0;left=0;bottom=0;html=1;fillColor=none;align=left;verticalAlign=top;spacingLeft=4;spacingRight=4;whiteSpace=wrap;overflow=hidden;rotatable=0;points=[];portConstraint=eastwest;part=1;" vertex="1" connectable="0" parent="6g9lSGSLGqjh2TLEqw__-152">
          <mxGeometry width="30" height="26" as="geometry" />
        </mxCell>
        <mxCell id="6g9lSGSLGqjh2TLEqw__-154" value="isHourly" style="shape=partialRectangle;top=0;left=0;right=0;bottom=0;html=1;align=left;verticalAlign=top;fillColor=none;spacingLeft=34;spacingRight=4;whiteSpace=wrap;overflow=hidden;rotatable=0;points=[[0,0.5],[1,0.5]];portConstraint=eastwest;dropTarget=0;" vertex="1" parent="6g9lSGSLGqjh2TLEqw__-143">
          <mxGeometry y="160" width="160" height="26" as="geometry" />
        </mxCell>
        <mxCell id="6g9lSGSLGqjh2TLEqw__-155" value="" style="shape=partialRectangle;top=0;left=0;bottom=0;html=1;fillColor=none;align=left;verticalAlign=top;spacingLeft=4;spacingRight=4;whiteSpace=wrap;overflow=hidden;rotatable=0;points=[];portConstraint=eastwest;part=1;" vertex="1" connectable="0" parent="6g9lSGSLGqjh2TLEqw__-154">
          <mxGeometry width="30" height="26" as="geometry" />
        </mxCell>
        <mxCell id="6g9lSGSLGqjh2TLEqw__-227" value="isSalaried" style="shape=partialRectangle;top=0;left=0;right=0;bottom=0;html=1;align=left;verticalAlign=top;fillColor=none;spacingLeft=34;spacingRight=4;whiteSpace=wrap;overflow=hidden;rotatable=0;points=[[0,0.5],[1,0.5]];portConstraint=eastwest;dropTarget=0;" vertex="1" parent="6g9lSGSLGqjh2TLEqw__-143">
          <mxGeometry y="186" width="160" height="26" as="geometry" />
        </mxCell>
        <mxCell id="6g9lSGSLGqjh2TLEqw__-228" value="" style="shape=partialRectangle;top=0;left=0;bottom=0;html=1;fillColor=none;align=left;verticalAlign=top;spacingLeft=4;spacingRight=4;whiteSpace=wrap;overflow=hidden;rotatable=0;points=[];portConstraint=eastwest;part=1;" vertex="1" connectable="0" parent="6g9lSGSLGqjh2TLEqw__-227">
          <mxGeometry width="30" height="26" as="geometry" />
        </mxCell>
        <mxCell id="6g9lSGSLGqjh2TLEqw__-156" value="HourlyEmployee" style="swimlane;html=1;fontStyle=0;childLayout=stackLayout;horizontal=1;startSize=26;fillColor=#e0e0e0;horizontalStack=0;resizeParent=1;resizeLast=0;collapsible=1;marginBottom=0;swimlaneFillColor=#ffffff;align=center;rounded=0;shadow=0;comic=0;labelBackgroundColor=none;strokeWidth=1;fontFamily=Verdana;fontSize=14;swimlaneLine=1;" vertex="1" parent="6g9lSGSLGqjh2TLEqw__-142">
          <mxGeometry x="20" y="401" width="150" height="120" as="geometry" />
        </mxCell>
        <mxCell id="6g9lSGSLGqjh2TLEqw__-157" value="empNum_FK" style="shape=partialRectangle;top=0;left=0;right=0;bottom=1;html=1;align=left;verticalAlign=middle;fillColor=none;spacingLeft=34;spacingRight=4;whiteSpace=wrap;overflow=hidden;rotatable=0;points=[[0,0.5],[1,0.5]];portConstraint=eastwest;dropTarget=0;fontStyle=5;" vertex="1" parent="6g9lSGSLGqjh2TLEqw__-156">
          <mxGeometry y="26" width="150" height="30" as="geometry" />
        </mxCell>
        <mxCell id="6g9lSGSLGqjh2TLEqw__-158" value="PK, FK1" style="shape=partialRectangle;top=0;left=0;bottom=0;html=1;fillColor=none;align=left;verticalAlign=middle;spacingLeft=4;spacingRight=4;whiteSpace=wrap;overflow=hidden;rotatable=0;points=[];portConstraint=eastwest;part=1;" vertex="1" connectable="0" parent="6g9lSGSLGqjh2TLEqw__-157">
          <mxGeometry width="31.578947368421055" height="30" as="geometry" />
        </mxCell>
        <mxCell id="6g9lSGSLGqjh2TLEqw__-159" value="payRates" style="shape=partialRectangle;top=0;left=0;right=0;bottom=0;html=1;align=left;verticalAlign=top;fillColor=none;spacingLeft=34;spacingRight=4;whiteSpace=wrap;overflow=hidden;rotatable=0;points=[[0,0.5],[1,0.5]];portConstraint=eastwest;dropTarget=0;" vertex="1" parent="6g9lSGSLGqjh2TLEqw__-156">
          <mxGeometry y="56" width="150" height="26" as="geometry" />
        </mxCell>
        <mxCell id="6g9lSGSLGqjh2TLEqw__-160" value="" style="shape=partialRectangle;top=0;left=0;bottom=0;html=1;fillColor=none;align=left;verticalAlign=top;spacingLeft=4;spacingRight=4;whiteSpace=wrap;overflow=hidden;rotatable=0;points=[];portConstraint=eastwest;part=1;" vertex="1" connectable="0" parent="6g9lSGSLGqjh2TLEqw__-159">
          <mxGeometry width="30" height="26" as="geometry" />
        </mxCell>
        <mxCell id="6g9lSGSLGqjh2TLEqw__-161" value="hoursWorked" style="shape=partialRectangle;top=0;left=0;right=0;bottom=0;html=1;align=left;verticalAlign=top;fillColor=none;spacingLeft=34;spacingRight=4;whiteSpace=wrap;overflow=hidden;rotatable=0;points=[[0,0.5],[1,0.5]];portConstraint=eastwest;dropTarget=0;" vertex="1" parent="6g9lSGSLGqjh2TLEqw__-156">
          <mxGeometry y="82" width="150" height="26" as="geometry" />
        </mxCell>
        <mxCell id="6g9lSGSLGqjh2TLEqw__-162" value="" style="shape=partialRectangle;top=0;left=0;bottom=0;html=1;fillColor=none;align=left;verticalAlign=top;spacingLeft=4;spacingRight=4;whiteSpace=wrap;overflow=hidden;rotatable=0;points=[];portConstraint=eastwest;part=1;" vertex="1" connectable="0" parent="6g9lSGSLGqjh2TLEqw__-161">
          <mxGeometry width="30" height="26" as="geometry" />
        </mxCell>
        <mxCell id="6g9lSGSLGqjh2TLEqw__-163" value="" style="shape=partialRectangle;top=0;left=0;right=0;bottom=0;html=1;align=left;verticalAlign=top;fillColor=none;spacingLeft=34;spacingRight=4;whiteSpace=wrap;overflow=hidden;rotatable=0;points=[[0,0.5],[1,0.5]];portConstraint=eastwest;dropTarget=0;" vertex="1" parent="6g9lSGSLGqjh2TLEqw__-156">
          <mxGeometry y="108" width="150" height="10" as="geometry" />
        </mxCell>
        <mxCell id="6g9lSGSLGqjh2TLEqw__-164" value="" style="shape=partialRectangle;top=0;left=0;bottom=0;html=1;fillColor=none;align=left;verticalAlign=top;spacingLeft=4;spacingRight=4;whiteSpace=wrap;overflow=hidden;rotatable=0;points=[];portConstraint=eastwest;part=1;" vertex="1" connectable="0" parent="6g9lSGSLGqjh2TLEqw__-163">
          <mxGeometry width="30" height="10" as="geometry" />
        </mxCell>
        <mxCell id="6g9lSGSLGqjh2TLEqw__-165" value="" style="shape=link;html=1;rounded=0;" edge="1" parent="6g9lSGSLGqjh2TLEqw__-142">
          <mxGeometry width="100" relative="1" as="geometry">
            <mxPoint x="170" y="317" as="sourcePoint" />
            <mxPoint x="270" y="317" as="targetPoint" />
          </mxGeometry>
        </mxCell>
        <mxCell id="6g9lSGSLGqjh2TLEqw__-166" value="SalariedEmployee" style="swimlane;html=1;fontStyle=0;childLayout=stackLayout;horizontal=1;startSize=26;fillColor=#e0e0e0;horizontalStack=0;resizeParent=1;resizeLast=0;collapsible=1;marginBottom=0;swimlaneFillColor=#ffffff;align=center;rounded=0;shadow=0;comic=0;labelBackgroundColor=none;strokeWidth=1;fontFamily=Verdana;fontSize=14;swimlaneLine=1;" vertex="1" parent="6g9lSGSLGqjh2TLEqw__-142">
          <mxGeometry x="270" y="401" width="150" height="144" as="geometry" />
        </mxCell>
        <mxCell id="6g9lSGSLGqjh2TLEqw__-167" value="empNum_FK" style="shape=partialRectangle;top=0;left=0;right=0;bottom=1;html=1;align=left;verticalAlign=middle;fillColor=none;spacingLeft=34;spacingRight=4;whiteSpace=wrap;overflow=hidden;rotatable=0;points=[[0,0.5],[1,0.5]];portConstraint=eastwest;dropTarget=0;fontStyle=5;" vertex="1" parent="6g9lSGSLGqjh2TLEqw__-166">
          <mxGeometry y="26" width="150" height="30" as="geometry" />
        </mxCell>
        <mxCell id="6g9lSGSLGqjh2TLEqw__-168" value="PK, FK1" style="shape=partialRectangle;top=0;left=0;bottom=0;html=1;fillColor=none;align=left;verticalAlign=middle;spacingLeft=4;spacingRight=4;whiteSpace=wrap;overflow=hidden;rotatable=0;points=[];portConstraint=eastwest;part=1;" vertex="1" connectable="0" parent="6g9lSGSLGqjh2TLEqw__-167">
          <mxGeometry width="31.578947368421055" height="30" as="geometry" />
        </mxCell>
        <mxCell id="6g9lSGSLGqjh2TLEqw__-169" value="annualSalary" style="shape=partialRectangle;top=0;left=0;right=0;bottom=0;html=1;align=left;verticalAlign=top;fillColor=none;spacingLeft=34;spacingRight=4;whiteSpace=wrap;overflow=hidden;rotatable=0;points=[[0,0.5],[1,0.5]];portConstraint=eastwest;dropTarget=0;" vertex="1" parent="6g9lSGSLGqjh2TLEqw__-166">
          <mxGeometry y="56" width="150" height="26" as="geometry" />
        </mxCell>
        <mxCell id="6g9lSGSLGqjh2TLEqw__-170" value="" style="shape=partialRectangle;top=0;left=0;bottom=0;html=1;fillColor=none;align=left;verticalAlign=top;spacingLeft=4;spacingRight=4;whiteSpace=wrap;overflow=hidden;rotatable=0;points=[];portConstraint=eastwest;part=1;" vertex="1" connectable="0" parent="6g9lSGSLGqjh2TLEqw__-169">
          <mxGeometry width="30" height="26" as="geometry" />
        </mxCell>
        <mxCell id="6g9lSGSLGqjh2TLEqw__-171" value="payFrequency" style="shape=partialRectangle;top=0;left=0;right=0;bottom=0;html=1;align=left;verticalAlign=top;fillColor=none;spacingLeft=34;spacingRight=4;whiteSpace=wrap;overflow=hidden;rotatable=0;points=[[0,0.5],[1,0.5]];portConstraint=eastwest;dropTarget=0;" vertex="1" parent="6g9lSGSLGqjh2TLEqw__-166">
          <mxGeometry y="82" width="150" height="26" as="geometry" />
        </mxCell>
        <mxCell id="6g9lSGSLGqjh2TLEqw__-172" value="" style="shape=partialRectangle;top=0;left=0;bottom=0;html=1;fillColor=none;align=left;verticalAlign=top;spacingLeft=4;spacingRight=4;whiteSpace=wrap;overflow=hidden;rotatable=0;points=[];portConstraint=eastwest;part=1;" vertex="1" connectable="0" parent="6g9lSGSLGqjh2TLEqw__-171">
          <mxGeometry width="30" height="26" as="geometry" />
        </mxCell>
        <mxCell id="6g9lSGSLGqjh2TLEqw__-173" value="salary" style="shape=partialRectangle;top=0;left=0;right=0;bottom=0;html=1;align=left;verticalAlign=top;fillColor=none;spacingLeft=34;spacingRight=4;whiteSpace=wrap;overflow=hidden;rotatable=0;points=[[0,0.5],[1,0.5]];portConstraint=eastwest;dropTarget=0;" vertex="1" parent="6g9lSGSLGqjh2TLEqw__-166">
          <mxGeometry y="108" width="150" height="26" as="geometry" />
        </mxCell>
        <mxCell id="6g9lSGSLGqjh2TLEqw__-174" value="" style="shape=partialRectangle;top=0;left=0;bottom=0;html=1;fillColor=none;align=left;verticalAlign=top;spacingLeft=4;spacingRight=4;whiteSpace=wrap;overflow=hidden;rotatable=0;points=[];portConstraint=eastwest;part=1;" vertex="1" connectable="0" parent="6g9lSGSLGqjh2TLEqw__-173">
          <mxGeometry width="30" height="26" as="geometry" />
        </mxCell>
        <mxCell id="6g9lSGSLGqjh2TLEqw__-175" value="" style="shape=partialRectangle;top=0;left=0;right=0;bottom=0;html=1;align=left;verticalAlign=top;fillColor=none;spacingLeft=34;spacingRight=4;whiteSpace=wrap;overflow=hidden;rotatable=0;points=[[0,0.5],[1,0.5]];portConstraint=eastwest;dropTarget=0;" vertex="1" parent="6g9lSGSLGqjh2TLEqw__-166">
          <mxGeometry y="134" width="150" height="10" as="geometry" />
        </mxCell>
        <mxCell id="6g9lSGSLGqjh2TLEqw__-176" value="" style="shape=partialRectangle;top=0;left=0;bottom=0;html=1;fillColor=none;align=left;verticalAlign=top;spacingLeft=4;spacingRight=4;whiteSpace=wrap;overflow=hidden;rotatable=0;points=[];portConstraint=eastwest;part=1;" vertex="1" connectable="0" parent="6g9lSGSLGqjh2TLEqw__-175">
          <mxGeometry width="30" height="10" as="geometry" />
        </mxCell>
        <mxCell id="6g9lSGSLGqjh2TLEqw__-177" value="O" style="ellipse;whiteSpace=wrap;html=1;aspect=fixed;" vertex="1" parent="6g9lSGSLGqjh2TLEqw__-142">
          <mxGeometry x="200" y="269" width="40" height="40" as="geometry" />
        </mxCell>
        <mxCell id="6g9lSGSLGqjh2TLEqw__-178" value="" style="endArrow=none;html=1;rounded=0;exitX=0.5;exitY=0;exitDx=0;exitDy=0;entryX=0.5;entryY=1;entryDx=0;entryDy=0;" edge="1" parent="6g9lSGSLGqjh2TLEqw__-142" source="6g9lSGSLGqjh2TLEqw__-177" target="6g9lSGSLGqjh2TLEqw__-143">
          <mxGeometry width="50" height="50" relative="1" as="geometry">
            <mxPoint x="180" y="367" as="sourcePoint" />
            <mxPoint x="230" y="317" as="targetPoint" />
          </mxGeometry>
        </mxCell>
        <mxCell id="6g9lSGSLGqjh2TLEqw__-179" value="" style="endArrow=none;html=1;rounded=0;exitX=0.5;exitY=0;exitDx=0;exitDy=0;" edge="1" parent="6g9lSGSLGqjh2TLEqw__-142" source="6g9lSGSLGqjh2TLEqw__-156">
          <mxGeometry width="50" height="50" relative="1" as="geometry">
            <mxPoint x="180" y="367" as="sourcePoint" />
            <mxPoint x="220" y="317" as="targetPoint" />
            <Array as="points">
              <mxPoint x="100" y="357" />
              <mxPoint x="220" y="357" />
            </Array>
          </mxGeometry>
        </mxCell>
        <mxCell id="6g9lSGSLGqjh2TLEqw__-180" value="" style="endArrow=none;html=1;rounded=0;exitX=0.5;exitY=0;exitDx=0;exitDy=0;" edge="1" parent="6g9lSGSLGqjh2TLEqw__-142" source="6g9lSGSLGqjh2TLEqw__-166">
          <mxGeometry width="50" height="50" relative="1" as="geometry">
            <mxPoint x="105" y="411" as="sourcePoint" />
            <mxPoint x="220" y="317" as="targetPoint" />
            <Array as="points">
              <mxPoint x="340" y="357" />
              <mxPoint x="220" y="357" />
            </Array>
          </mxGeometry>
        </mxCell>
        <mxCell id="6g9lSGSLGqjh2TLEqw__-183" value="Current&amp;nbsp; Data" style="text;html=1;align=center;verticalAlign=middle;resizable=0;points=[];autosize=1;strokeColor=none;fillColor=none;fontStyle=1;fontSize=18;" vertex="1" parent="6g9lSGSLGqjh2TLEqw__-142">
          <mxGeometry x="320" y="17" width="140" height="40" as="geometry" />
        </mxCell>
        <mxCell id="6g9lSGSLGqjh2TLEqw__-184" value="" style="swimlane;startSize=0;" vertex="1" parent="1">
          <mxGeometry x="1680" y="125" width="200" height="580" as="geometry" />
        </mxCell>
        <mxCell id="6g9lSGSLGqjh2TLEqw__-185" value="SalaryHistory" style="swimlane;html=1;fontStyle=0;childLayout=stackLayout;horizontal=1;startSize=26;fillColor=#e0e0e0;horizontalStack=0;resizeParent=1;resizeLast=0;collapsible=1;marginBottom=0;swimlaneFillColor=#ffffff;align=center;rounded=0;shadow=0;comic=0;labelBackgroundColor=none;strokeWidth=1;fontFamily=Verdana;fontSize=14;swimlaneLine=1;" vertex="1" parent="6g9lSGSLGqjh2TLEqw__-184">
          <mxGeometry x="25" y="395" width="150" height="170" as="geometry" />
        </mxCell>
        <mxCell id="6g9lSGSLGqjh2TLEqw__-186" value="empNum_FK" style="shape=partialRectangle;top=0;left=0;right=0;bottom=1;html=1;align=left;verticalAlign=middle;fillColor=none;spacingLeft=34;spacingRight=4;whiteSpace=wrap;overflow=hidden;rotatable=0;points=[[0,0.5],[1,0.5]];portConstraint=eastwest;dropTarget=0;fontStyle=5;" vertex="1" parent="6g9lSGSLGqjh2TLEqw__-185">
          <mxGeometry y="26" width="150" height="30" as="geometry" />
        </mxCell>
        <mxCell id="6g9lSGSLGqjh2TLEqw__-187" value="PK, FK1" style="shape=partialRectangle;top=0;left=0;bottom=0;html=1;fillColor=none;align=left;verticalAlign=middle;spacingLeft=4;spacingRight=4;whiteSpace=wrap;overflow=hidden;rotatable=0;points=[];portConstraint=eastwest;part=1;" vertex="1" connectable="0" parent="6g9lSGSLGqjh2TLEqw__-186">
          <mxGeometry width="31.578947368421055" height="30" as="geometry" />
        </mxCell>
        <mxCell id="6g9lSGSLGqjh2TLEqw__-188" value="previousSalaries" style="shape=partialRectangle;top=0;left=0;right=0;bottom=0;html=1;align=left;verticalAlign=top;fillColor=none;spacingLeft=34;spacingRight=4;whiteSpace=wrap;overflow=hidden;rotatable=0;points=[[0,0.5],[1,0.5]];portConstraint=eastwest;dropTarget=0;" vertex="1" parent="6g9lSGSLGqjh2TLEqw__-185">
          <mxGeometry y="56" width="150" height="26" as="geometry" />
        </mxCell>
        <mxCell id="6g9lSGSLGqjh2TLEqw__-189" value="" style="shape=partialRectangle;top=0;left=0;bottom=0;html=1;fillColor=none;align=left;verticalAlign=top;spacingLeft=4;spacingRight=4;whiteSpace=wrap;overflow=hidden;rotatable=0;points=[];portConstraint=eastwest;part=1;" vertex="1" connectable="0" parent="6g9lSGSLGqjh2TLEqw__-188">
          <mxGeometry width="30" height="26" as="geometry" />
        </mxCell>
        <mxCell id="6g9lSGSLGqjh2TLEqw__-190" value="new Salary" style="shape=partialRectangle;top=0;left=0;right=0;bottom=0;html=1;align=left;verticalAlign=top;fillColor=none;spacingLeft=34;spacingRight=4;whiteSpace=wrap;overflow=hidden;rotatable=0;points=[[0,0.5],[1,0.5]];portConstraint=eastwest;dropTarget=0;" vertex="1" parent="6g9lSGSLGqjh2TLEqw__-185">
          <mxGeometry y="82" width="150" height="26" as="geometry" />
        </mxCell>
        <mxCell id="6g9lSGSLGqjh2TLEqw__-191" value="" style="shape=partialRectangle;top=0;left=0;bottom=0;html=1;fillColor=none;align=left;verticalAlign=top;spacingLeft=4;spacingRight=4;whiteSpace=wrap;overflow=hidden;rotatable=0;points=[];portConstraint=eastwest;part=1;" vertex="1" connectable="0" parent="6g9lSGSLGqjh2TLEqw__-190">
          <mxGeometry width="30" height="26" as="geometry" />
        </mxCell>
        <mxCell id="6g9lSGSLGqjh2TLEqw__-192" value="dateOfChange" style="shape=partialRectangle;top=0;left=0;right=0;bottom=0;html=1;align=left;verticalAlign=top;fillColor=none;spacingLeft=34;spacingRight=4;whiteSpace=wrap;overflow=hidden;rotatable=0;points=[[0,0.5],[1,0.5]];portConstraint=eastwest;dropTarget=0;" vertex="1" parent="6g9lSGSLGqjh2TLEqw__-185">
          <mxGeometry y="108" width="150" height="26" as="geometry" />
        </mxCell>
        <mxCell id="6g9lSGSLGqjh2TLEqw__-193" value="" style="shape=partialRectangle;top=0;left=0;bottom=0;html=1;fillColor=none;align=left;verticalAlign=top;spacingLeft=4;spacingRight=4;whiteSpace=wrap;overflow=hidden;rotatable=0;points=[];portConstraint=eastwest;part=1;" vertex="1" connectable="0" parent="6g9lSGSLGqjh2TLEqw__-192">
          <mxGeometry width="30" height="26" as="geometry" />
        </mxCell>
        <mxCell id="6g9lSGSLGqjh2TLEqw__-194" value="" style="shape=partialRectangle;top=0;left=0;right=0;bottom=0;html=1;align=left;verticalAlign=top;fillColor=none;spacingLeft=34;spacingRight=4;whiteSpace=wrap;overflow=hidden;rotatable=0;points=[[0,0.5],[1,0.5]];portConstraint=eastwest;dropTarget=0;" vertex="1" parent="6g9lSGSLGqjh2TLEqw__-185">
          <mxGeometry y="134" width="150" height="10" as="geometry" />
        </mxCell>
        <mxCell id="6g9lSGSLGqjh2TLEqw__-195" value="" style="shape=partialRectangle;top=0;left=0;bottom=0;html=1;fillColor=none;align=left;verticalAlign=top;spacingLeft=4;spacingRight=4;whiteSpace=wrap;overflow=hidden;rotatable=0;points=[];portConstraint=eastwest;part=1;" vertex="1" connectable="0" parent="6g9lSGSLGqjh2TLEqw__-194">
          <mxGeometry width="30" height="10" as="geometry" />
        </mxCell>
        <mxCell id="6g9lSGSLGqjh2TLEqw__-196" value="AddressHistory" style="swimlane;html=1;fontStyle=0;childLayout=stackLayout;horizontal=1;startSize=26;fillColor=#e0e0e0;horizontalStack=0;resizeParent=1;resizeLast=0;collapsible=1;marginBottom=0;swimlaneFillColor=#ffffff;align=center;rounded=0;shadow=0;comic=0;labelBackgroundColor=none;strokeWidth=1;fontFamily=Verdana;fontSize=14;swimlaneLine=1;" vertex="1" parent="6g9lSGSLGqjh2TLEqw__-184">
          <mxGeometry x="25" y="55" width="150" height="144" as="geometry" />
        </mxCell>
        <mxCell id="6g9lSGSLGqjh2TLEqw__-197" value="empNum_FK" style="shape=partialRectangle;top=0;left=0;right=0;bottom=1;html=1;align=left;verticalAlign=middle;fillColor=none;spacingLeft=34;spacingRight=4;whiteSpace=wrap;overflow=hidden;rotatable=0;points=[[0,0.5],[1,0.5]];portConstraint=eastwest;dropTarget=0;fontStyle=5;" vertex="1" parent="6g9lSGSLGqjh2TLEqw__-196">
          <mxGeometry y="26" width="150" height="30" as="geometry" />
        </mxCell>
        <mxCell id="6g9lSGSLGqjh2TLEqw__-198" value="PK, FK1" style="shape=partialRectangle;top=0;left=0;bottom=0;html=1;fillColor=none;align=left;verticalAlign=middle;spacingLeft=4;spacingRight=4;whiteSpace=wrap;overflow=hidden;rotatable=0;points=[];portConstraint=eastwest;part=1;" vertex="1" connectable="0" parent="6g9lSGSLGqjh2TLEqw__-197">
          <mxGeometry width="31.578947368421055" height="30" as="geometry" />
        </mxCell>
        <mxCell id="6g9lSGSLGqjh2TLEqw__-199" value="previousAddress" style="shape=partialRectangle;top=0;left=0;right=0;bottom=0;html=1;align=left;verticalAlign=top;fillColor=none;spacingLeft=34;spacingRight=4;whiteSpace=wrap;overflow=hidden;rotatable=0;points=[[0,0.5],[1,0.5]];portConstraint=eastwest;dropTarget=0;" vertex="1" parent="6g9lSGSLGqjh2TLEqw__-196">
          <mxGeometry y="56" width="150" height="26" as="geometry" />
        </mxCell>
        <mxCell id="6g9lSGSLGqjh2TLEqw__-200" value="" style="shape=partialRectangle;top=0;left=0;bottom=0;html=1;fillColor=none;align=left;verticalAlign=top;spacingLeft=4;spacingRight=4;whiteSpace=wrap;overflow=hidden;rotatable=0;points=[];portConstraint=eastwest;part=1;" vertex="1" connectable="0" parent="6g9lSGSLGqjh2TLEqw__-199">
          <mxGeometry width="30" height="26" as="geometry" />
        </mxCell>
        <mxCell id="6g9lSGSLGqjh2TLEqw__-201" value="newAddress" style="shape=partialRectangle;top=0;left=0;right=0;bottom=0;html=1;align=left;verticalAlign=top;fillColor=none;spacingLeft=34;spacingRight=4;whiteSpace=wrap;overflow=hidden;rotatable=0;points=[[0,0.5],[1,0.5]];portConstraint=eastwest;dropTarget=0;" vertex="1" parent="6g9lSGSLGqjh2TLEqw__-196">
          <mxGeometry y="82" width="150" height="26" as="geometry" />
        </mxCell>
        <mxCell id="6g9lSGSLGqjh2TLEqw__-202" value="" style="shape=partialRectangle;top=0;left=0;bottom=0;html=1;fillColor=none;align=left;verticalAlign=top;spacingLeft=4;spacingRight=4;whiteSpace=wrap;overflow=hidden;rotatable=0;points=[];portConstraint=eastwest;part=1;" vertex="1" connectable="0" parent="6g9lSGSLGqjh2TLEqw__-201">
          <mxGeometry width="30" height="26" as="geometry" />
        </mxCell>
        <mxCell id="6g9lSGSLGqjh2TLEqw__-203" value="dateOfChange" style="shape=partialRectangle;top=0;left=0;right=0;bottom=0;html=1;align=left;verticalAlign=top;fillColor=none;spacingLeft=34;spacingRight=4;whiteSpace=wrap;overflow=hidden;rotatable=0;points=[[0,0.5],[1,0.5]];portConstraint=eastwest;dropTarget=0;" vertex="1" parent="6g9lSGSLGqjh2TLEqw__-196">
          <mxGeometry y="108" width="150" height="26" as="geometry" />
        </mxCell>
        <mxCell id="6g9lSGSLGqjh2TLEqw__-204" value="" style="shape=partialRectangle;top=0;left=0;bottom=0;html=1;fillColor=none;align=left;verticalAlign=top;spacingLeft=4;spacingRight=4;whiteSpace=wrap;overflow=hidden;rotatable=0;points=[];portConstraint=eastwest;part=1;" vertex="1" connectable="0" parent="6g9lSGSLGqjh2TLEqw__-203">
          <mxGeometry width="30" height="26" as="geometry" />
        </mxCell>
        <mxCell id="6g9lSGSLGqjh2TLEqw__-205" value="" style="shape=partialRectangle;top=0;left=0;right=0;bottom=0;html=1;align=left;verticalAlign=top;fillColor=none;spacingLeft=34;spacingRight=4;whiteSpace=wrap;overflow=hidden;rotatable=0;points=[[0,0.5],[1,0.5]];portConstraint=eastwest;dropTarget=0;" vertex="1" parent="6g9lSGSLGqjh2TLEqw__-196">
          <mxGeometry y="134" width="150" height="10" as="geometry" />
        </mxCell>
        <mxCell id="6g9lSGSLGqjh2TLEqw__-206" value="" style="shape=partialRectangle;top=0;left=0;bottom=0;html=1;fillColor=none;align=left;verticalAlign=top;spacingLeft=4;spacingRight=4;whiteSpace=wrap;overflow=hidden;rotatable=0;points=[];portConstraint=eastwest;part=1;" vertex="1" connectable="0" parent="6g9lSGSLGqjh2TLEqw__-205">
          <mxGeometry width="30" height="10" as="geometry" />
        </mxCell>
        <mxCell id="6g9lSGSLGqjh2TLEqw__-207" value="Historic Data" style="text;html=1;align=center;verticalAlign=middle;resizable=0;points=[];autosize=1;strokeColor=none;fillColor=none;fontStyle=1;fontSize=18;" vertex="1" parent="6g9lSGSLGqjh2TLEqw__-184">
          <mxGeometry x="60" y="5" width="130" height="40" as="geometry" />
        </mxCell>
        <mxCell id="6g9lSGSLGqjh2TLEqw__-208" value="EmailHistory" style="swimlane;html=1;fontStyle=0;childLayout=stackLayout;horizontal=1;startSize=26;fillColor=#e0e0e0;horizontalStack=0;resizeParent=1;resizeLast=0;collapsible=1;marginBottom=0;swimlaneFillColor=#ffffff;align=center;rounded=0;shadow=0;comic=0;labelBackgroundColor=none;strokeWidth=1;fontFamily=Verdana;fontSize=14;swimlaneLine=1;" vertex="1" parent="6g9lSGSLGqjh2TLEqw__-184">
          <mxGeometry x="25" y="218" width="150" height="144" as="geometry" />
        </mxCell>
        <mxCell id="6g9lSGSLGqjh2TLEqw__-209" value="empNum_FK" style="shape=partialRectangle;top=0;left=0;right=0;bottom=1;html=1;align=left;verticalAlign=middle;fillColor=none;spacingLeft=34;spacingRight=4;whiteSpace=wrap;overflow=hidden;rotatable=0;points=[[0,0.5],[1,0.5]];portConstraint=eastwest;dropTarget=0;fontStyle=5;" vertex="1" parent="6g9lSGSLGqjh2TLEqw__-208">
          <mxGeometry y="26" width="150" height="30" as="geometry" />
        </mxCell>
        <mxCell id="6g9lSGSLGqjh2TLEqw__-210" value="PK, FK1" style="shape=partialRectangle;top=0;left=0;bottom=0;html=1;fillColor=none;align=left;verticalAlign=middle;spacingLeft=4;spacingRight=4;whiteSpace=wrap;overflow=hidden;rotatable=0;points=[];portConstraint=eastwest;part=1;" vertex="1" connectable="0" parent="6g9lSGSLGqjh2TLEqw__-209">
          <mxGeometry width="31.578947368421055" height="30" as="geometry" />
        </mxCell>
        <mxCell id="6g9lSGSLGqjh2TLEqw__-211" value="previousEmail" style="shape=partialRectangle;top=0;left=0;right=0;bottom=0;html=1;align=left;verticalAlign=top;fillColor=none;spacingLeft=34;spacingRight=4;whiteSpace=wrap;overflow=hidden;rotatable=0;points=[[0,0.5],[1,0.5]];portConstraint=eastwest;dropTarget=0;" vertex="1" parent="6g9lSGSLGqjh2TLEqw__-208">
          <mxGeometry y="56" width="150" height="26" as="geometry" />
        </mxCell>
        <mxCell id="6g9lSGSLGqjh2TLEqw__-212" value="" style="shape=partialRectangle;top=0;left=0;bottom=0;html=1;fillColor=none;align=left;verticalAlign=top;spacingLeft=4;spacingRight=4;whiteSpace=wrap;overflow=hidden;rotatable=0;points=[];portConstraint=eastwest;part=1;" vertex="1" connectable="0" parent="6g9lSGSLGqjh2TLEqw__-211">
          <mxGeometry width="30" height="26" as="geometry" />
        </mxCell>
        <mxCell id="6g9lSGSLGqjh2TLEqw__-213" value="newEmail" style="shape=partialRectangle;top=0;left=0;right=0;bottom=0;html=1;align=left;verticalAlign=top;fillColor=none;spacingLeft=34;spacingRight=4;whiteSpace=wrap;overflow=hidden;rotatable=0;points=[[0,0.5],[1,0.5]];portConstraint=eastwest;dropTarget=0;" vertex="1" parent="6g9lSGSLGqjh2TLEqw__-208">
          <mxGeometry y="82" width="150" height="26" as="geometry" />
        </mxCell>
        <mxCell id="6g9lSGSLGqjh2TLEqw__-214" value="" style="shape=partialRectangle;top=0;left=0;bottom=0;html=1;fillColor=none;align=left;verticalAlign=top;spacingLeft=4;spacingRight=4;whiteSpace=wrap;overflow=hidden;rotatable=0;points=[];portConstraint=eastwest;part=1;" vertex="1" connectable="0" parent="6g9lSGSLGqjh2TLEqw__-213">
          <mxGeometry width="30" height="26" as="geometry" />
        </mxCell>
        <mxCell id="6g9lSGSLGqjh2TLEqw__-215" value="dateOfChange" style="shape=partialRectangle;top=0;left=0;right=0;bottom=0;html=1;align=left;verticalAlign=top;fillColor=none;spacingLeft=34;spacingRight=4;whiteSpace=wrap;overflow=hidden;rotatable=0;points=[[0,0.5],[1,0.5]];portConstraint=eastwest;dropTarget=0;" vertex="1" parent="6g9lSGSLGqjh2TLEqw__-208">
          <mxGeometry y="108" width="150" height="26" as="geometry" />
        </mxCell>
        <mxCell id="6g9lSGSLGqjh2TLEqw__-216" value="" style="shape=partialRectangle;top=0;left=0;bottom=0;html=1;fillColor=none;align=left;verticalAlign=top;spacingLeft=4;spacingRight=4;whiteSpace=wrap;overflow=hidden;rotatable=0;points=[];portConstraint=eastwest;part=1;" vertex="1" connectable="0" parent="6g9lSGSLGqjh2TLEqw__-215">
          <mxGeometry width="30" height="26" as="geometry" />
        </mxCell>
        <mxCell id="6g9lSGSLGqjh2TLEqw__-217" value="" style="shape=partialRectangle;top=0;left=0;right=0;bottom=0;html=1;align=left;verticalAlign=top;fillColor=none;spacingLeft=34;spacingRight=4;whiteSpace=wrap;overflow=hidden;rotatable=0;points=[[0,0.5],[1,0.5]];portConstraint=eastwest;dropTarget=0;" vertex="1" parent="6g9lSGSLGqjh2TLEqw__-208">
          <mxGeometry y="134" width="150" height="10" as="geometry" />
        </mxCell>
        <mxCell id="6g9lSGSLGqjh2TLEqw__-218" value="" style="shape=partialRectangle;top=0;left=0;bottom=0;html=1;fillColor=none;align=left;verticalAlign=top;spacingLeft=4;spacingRight=4;whiteSpace=wrap;overflow=hidden;rotatable=0;points=[];portConstraint=eastwest;part=1;" vertex="1" connectable="0" parent="6g9lSGSLGqjh2TLEqw__-217">
          <mxGeometry width="30" height="10" as="geometry" />
        </mxCell>
        <mxCell id="6g9lSGSLGqjh2TLEqw__-219" value="" style="edgeStyle=entityRelationEdgeStyle;fontSize=12;html=1;endArrow=ERzeroToMany;startArrow=ERmandOne;rounded=0;exitX=1;exitY=0.5;exitDx=0;exitDy=0;entryX=0;entryY=0.5;entryDx=0;entryDy=0;" edge="1" parent="1" source="6g9lSGSLGqjh2TLEqw__-173" target="6g9lSGSLGqjh2TLEqw__-188">
          <mxGeometry width="100" height="100" relative="1" as="geometry">
            <mxPoint x="1560" y="540" as="sourcePoint" />
            <mxPoint x="1660" y="440" as="targetPoint" />
            <Array as="points">
              <mxPoint x="1690" y="470" />
            </Array>
          </mxGeometry>
        </mxCell>
        <mxCell id="6g9lSGSLGqjh2TLEqw__-220" value="salary" style="edgeLabel;html=1;align=center;verticalAlign=middle;resizable=0;points=[];" vertex="1" connectable="0" parent="6g9lSGSLGqjh2TLEqw__-219">
          <mxGeometry x="-0.0423" y="3" relative="1" as="geometry">
            <mxPoint as="offset" />
          </mxGeometry>
        </mxCell>
        <mxCell id="6g9lSGSLGqjh2TLEqw__-221" value="" style="edgeStyle=entityRelationEdgeStyle;fontSize=12;html=1;endArrow=ERzeroToMany;startArrow=ERmandOne;rounded=0;exitX=1;exitY=0.5;exitDx=0;exitDy=0;entryX=0;entryY=0.5;entryDx=0;entryDy=0;" edge="1" parent="1" source="6g9lSGSLGqjh2TLEqw__-150" target="6g9lSGSLGqjh2TLEqw__-197">
          <mxGeometry width="100" height="100" relative="1" as="geometry">
            <mxPoint x="1640" y="626" as="sourcePoint" />
            <mxPoint x="1775" y="628" as="targetPoint" />
            <Array as="points">
              <mxPoint x="1700" y="480" />
            </Array>
          </mxGeometry>
        </mxCell>
        <mxCell id="6g9lSGSLGqjh2TLEqw__-222" value="Address" style="edgeLabel;html=1;align=center;verticalAlign=middle;resizable=0;points=[];" vertex="1" connectable="0" parent="6g9lSGSLGqjh2TLEqw__-221">
          <mxGeometry x="-0.1223" relative="1" as="geometry">
            <mxPoint as="offset" />
          </mxGeometry>
        </mxCell>
        <mxCell id="6g9lSGSLGqjh2TLEqw__-223" value="" style="edgeStyle=entityRelationEdgeStyle;fontSize=12;html=1;endArrow=ERzeroToMany;startArrow=ERmandOne;rounded=0;exitX=1;exitY=0.5;exitDx=0;exitDy=0;entryX=0;entryY=0.5;entryDx=0;entryDy=0;" edge="1" parent="1" source="6g9lSGSLGqjh2TLEqw__-152" target="6g9lSGSLGqjh2TLEqw__-209">
          <mxGeometry width="100" height="100" relative="1" as="geometry">
            <mxPoint x="1524" y="205" as="sourcePoint" />
            <mxPoint x="1785" y="231" as="targetPoint" />
            <Array as="points">
              <mxPoint x="1710" y="490" />
            </Array>
          </mxGeometry>
        </mxCell>
        <mxCell id="6g9lSGSLGqjh2TLEqw__-224" value="email" style="edgeLabel;html=1;align=center;verticalAlign=middle;resizable=0;points=[];" vertex="1" connectable="0" parent="6g9lSGSLGqjh2TLEqw__-223">
          <mxGeometry x="-0.005" y="-2" relative="1" as="geometry">
            <mxPoint as="offset" />
          </mxGeometry>
        </mxCell>
        <mxCell id="6g9lSGSLGqjh2TLEqw__-225" value="Created By John Marshall" style="text;html=1;align=center;verticalAlign=middle;resizable=0;points=[];autosize=1;strokeColor=none;fillColor=none;fontStyle=1;fontSize=18;" vertex="1" parent="1">
          <mxGeometry x="840" y="200" width="240" height="40" as="geometry" />
        </mxCell>
        <mxCell id="6g9lSGSLGqjh2TLEqw__-226" value="Created By John Marshall" style="text;html=1;align=center;verticalAlign=middle;resizable=0;points=[];autosize=1;strokeColor=none;fillColor=none;fontStyle=1;fontSize=18;" vertex="1" parent="1">
          <mxGeometry x="1900" y="160" width="240" height="40" as="geometry" />
        </mxCell>
        <mxCell id="6g9lSGSLGqjh2TLEqw__-229" value="Disjointed Relational&lt;br&gt;Model" style="text;html=1;align=center;verticalAlign=middle;resizable=0;points=[];autosize=1;strokeColor=none;fillColor=none;fontStyle=0;fontSize=18;" vertex="1" parent="1">
          <mxGeometry x="1925" y="200" width="190" height="60" as="geometry" />
        </mxCell>
        <mxCell id="6g9lSGSLGqjh2TLEqw__-230" value="Disjointed Relational&lt;br&gt;Model" style="text;html=1;align=center;verticalAlign=middle;resizable=0;points=[];autosize=1;strokeColor=none;fillColor=none;fontStyle=0;fontSize=18;" vertex="1" parent="1">
          <mxGeometry x="855" y="240" width="190" height="60" as="geometry" />
        </mxCell>
      </root>
    </mxGraphModel>
  </diagram>
</mxfile>
